<?xml version="1.0" encoding="UTF-8" standalone="no"?>
<!-- Created with Inkscape (http://www.inkscape.org/) -->

<svg
   width="410"
   height="250"
   viewBox="0 0 108.47916 66.145835"
   version="1.1"
   id="svg1"
   xmlns="http://www.w3.org/2000/svg"
   xmlns:svg="http://www.w3.org/2000/svg">
  <defs
     id="defs1" />
  <g
     id="layer1">
    <g
       id="g2"
       transform="matrix(4.5430244,0,0,4.5430244,-59.427576,-29.440884)">
      <path
         id="pIteg0hE0"
         d="m 13.134667,21.025197 c -0.04282,-0.01713 -0.03854,-4.690843 0.0043,-5.059089 0.01713,-0.147726 0.0364,-0.286888 0.04068,-0.310439 0.113471,-0.479575 0.162713,-0.635865 0.306157,-0.931317 0.261197,-0.537381 0.708658,-1.04693 1.22677,-1.391624 0.237647,-0.158431 0.768605,-0.415347 1.027661,-0.498844 0.458165,-0.145585 0.520253,-0.164854 0.560931,-0.164854 0.02141,0 0.07922,-0.0086 0.128458,-0.02141 0.05138,-0.0107 0.149867,-0.02997 0.220519,-0.04282 0.07065,-0.01285 0.171277,-0.03211 0.224801,-0.04496 0.05352,-0.0107 0.158431,-0.02355 0.235505,-0.02783 0.07708,-0.0043 0.235506,-0.01927 0.353259,-0.03426 0.145585,-0.01713 0.361822,-0.02141 0.674402,-0.01284 0.520253,0.01499 2.055322,0.01927 2.070308,0.0043 0.0043,-0.0043 0.01071,-0.301875 0.01285,-0.661556 0.0021,-0.359681 0.01071,-0.659416 0.01927,-0.66798 0.0064,-0.0086 0.04068,0.0021 0.07493,0.01927 0.0471,0.02783 0.770746,0.541663 0.852102,0.608033 0.01285,0.0086 0.07065,0.04924 0.128458,0.08992 0.05995,0.04068 0.117753,0.08136 0.128458,0.09206 0.02355,0.01927 0.530958,0.381091 0.740772,0.526676 0.07707,0.05352 0.173418,0.124176 0.214096,0.15629 0.06423,0.05138 0.473152,0.342554 1.09403,0.781451 0.113471,0.07921 0.207673,0.152008 0.209814,0.162713 0,0.0086 0.0086,0.01499 0.02141,0.01499 0.02569,0 0.214096,0.132739 0.214096,0.152008 0,0.02355 -0.152008,0.145585 -0.363963,0.289029 -0.11133,0.07708 -0.295453,0.205532 -0.406783,0.28903 -0.11133,0.08136 -0.308298,0.22266 -0.438896,0.31258 -0.128458,0.08992 -0.239788,0.169136 -0.246211,0.175559 -0.0064,0.0086 -0.102766,0.07921 -0.214096,0.154149 -0.207673,0.143444 -0.411064,0.286888 -0.674402,0.479575 -0.08136,0.05995 -0.216237,0.15629 -0.299735,0.214096 -0.2248,0.15629 -0.588764,0.413205 -0.897062,0.635865 -0.166995,0.117753 -0.162713,0.13274 -0.162713,-0.507408 v -0.567354 l -0.0471,-0.0107 c -0.08564,-0.01927 -2.695469,0.0064 -2.875309,0.02783 -0.179841,0.02355 -0.325426,0.05138 -0.471011,0.08992 -0.0471,0.01285 -0.109189,0.02997 -0.139163,0.03425 -0.07707,0.01713 -0.117753,0.03426 -0.304016,0.124176 -0.26762,0.130599 -0.430333,0.344695 -0.492421,0.64657 -0.02783,0.13274 -0.0364,2.046758 -0.01071,2.115269 0.01285,0.02997 0.398219,0.03426 4.078529,0.03426 h 4.065683 l 0.04282,-0.04924 c 0.02569,-0.02569 0.179841,-0.229083 0.346836,-0.453884 0.164854,-0.22266 0.33399,-0.449601 0.376809,-0.503125 0.04068,-0.05352 0.122035,-0.158431 0.177699,-0.235506 0.05567,-0.07707 0.190546,-0.254774 0.295453,-0.396078 0.154149,-0.205532 1.196797,-1.601438 1.370214,-1.832661 0.02141,-0.02997 0.286889,-0.383232 0.586623,-0.781451 0.329708,-0.441037 0.545945,-0.745054 0.545945,-0.772886 0,-0.0364 0.01285,-0.04924 0.0471,-0.04924 0.04496,0 0.08992,0.05566 0.627302,0.770745 0.06637,0.08778 0.192686,0.254775 0.280465,0.370386 0.08778,0.115612 0.1777,0.237647 0.201251,0.271902 0.02355,0.03426 0.143444,0.194828 0.26762,0.357541 0.319003,0.417487 0.319003,0.419628 0.333989,0.462447 0.0086,0.01927 0.02141,0.0364 0.03212,0.0364 0.0107,0 0.01927,0.03426 0.01927,0.07493 0,0.04068 -0.0086,0.07493 -0.02141,0.07493 -0.0107,0 -0.02141,-0.0086 -0.02141,-0.02141 0,-0.06637 -0.07922,0.0021 -0.218378,0.186263 -0.08564,0.115612 -0.162713,0.220519 -0.173417,0.231224 -0.0086,0.01285 -0.276184,0.368245 -0.593046,0.792155 -0.314722,0.42391 -0.603751,0.809283 -0.640147,0.856384 -0.28903,0.374668 -1.6935,2.267277 -1.6935,2.280123 0,0.0107 -0.0086,0.02141 -0.01927,0.02569 -0.01071,0.0043 -0.184123,0.229083 -0.387514,0.498844 -0.20125,0.271902 -0.383232,0.505266 -0.402501,0.518112 -0.02569,0.02141 -1.301703,0.02783 -6.135991,0.02569 -3.357025,0 -6.116723,-0.0064 -6.129569,-0.01285 z"
         style="fill:#c42d20;stroke-width:0.00214096" />
      <path
         id="p2HaDI4Ea"
         d="m 31.951565,12.183032 c -0.02141,-0.02141 -0.1777,-0.220519 -0.342554,-0.445319 -0.164854,-0.22266 -0.528817,-0.710799 -0.805001,-1.081185 -0.278324,-0.370386 -0.505266,-0.6872485 -0.505266,-0.7022352 0,-0.017128 0.03426,-0.070652 0.07493,-0.1198937 0.04068,-0.051383 0.07493,-0.1006252 0.07493,-0.109189 0,-0.010705 0.02355,-0.042819 0.05138,-0.072793 0.04282,-0.04496 1.569324,-2.0788722 1.798406,-2.3957343 0.0364,-0.051383 0.09848,-0.1327395 0.139163,-0.1819816 0.04068,-0.049242 0.09634,-0.1263166 0.124176,-0.1734177 0.05352,-0.083498 0.207673,-0.2826068 0.289029,-0.3725271 l 0.04282,-0.047101 h 1.691359 c 1.487967,0 1.689217,0.00428 1.678512,0.032114 -0.0086,0.023551 -0.383231,0.5309581 -0.488139,0.6636976 -0.02783,0.034255 -0.24621,0.3275669 -1.055493,1.4130336 -0.419628,0.5652134 -0.792155,1.0619162 -0.824269,1.1025944 -0.06851,0.08992 -1.156119,1.541491 -1.3381,1.789842 -0.22266,0.299735 -0.552368,0.73649 -0.55665,0.73649 -0.0043,0 -0.02569,-0.01713 -0.04924,-0.0364 z"
         style="fill:#c42d20;stroke-width:0.00214096" />
      <path
         id="p1Exh7Vo0Y"
         d="m 34.340876,21.018774 -0.785732,-0.01071 -0.160572,-0.214096 c -0.08778,-0.117753 -0.186264,-0.250492 -0.220519,-0.295452 -0.03211,-0.04282 -0.08778,-0.117753 -0.124176,-0.164854 -0.03426,-0.0471 -0.09206,-0.124176 -0.128457,-0.171277 -0.03426,-0.04924 -0.09848,-0.130598 -0.139163,-0.181982 -0.154149,-0.192686 -0.299734,-0.393936 -0.299734,-0.411064 0,-0.01071 -0.02783,-0.0471 -0.06423,-0.08136 -0.03426,-0.03426 -0.06423,-0.07065 -0.06423,-0.08136 0,-0.01071 -0.02569,-0.05138 -0.05781,-0.09206 -0.03426,-0.03854 -0.08778,-0.109189 -0.124175,-0.158431 -0.03426,-0.0471 -0.09206,-0.124176 -0.128458,-0.171277 -0.03426,-0.04496 -0.09634,-0.126317 -0.132739,-0.175559 -0.05995,-0.07922 -0.71294,-0.95915 -0.944164,-1.269589 -0.04282,-0.05781 -0.08564,-0.115612 -0.09634,-0.128458 -0.03211,-0.04496 -0.220519,-0.293311 -0.301875,-0.398218 -0.0471,-0.05995 -0.169136,-0.226942 -0.274043,-0.368245 -0.104907,-0.141304 -0.214096,-0.286889 -0.24407,-0.323285 -0.02997,-0.0364 -0.13488,-0.1777 -0.235505,-0.31258 -0.207673,-0.282607 -0.265479,-0.361823 -0.301876,-0.398219 -0.01499,-0.01285 -0.01927,-0.02997 -0.01284,-0.03854 0.0086,-0.0064 0.0043,-0.01285 -0.0086,-0.01285 -0.01285,0 -0.02783,-0.01713 -0.0364,-0.0364 -0.01499,-0.04282 -0.01499,-0.04496 -0.33399,-0.462448 -0.124176,-0.162713 -0.24407,-0.323285 -0.26762,-0.35754 -0.02355,-0.03425 -0.09634,-0.132739 -0.162713,-0.218378 -0.06423,-0.08564 -0.209814,-0.276184 -0.319003,-0.42391 -0.11133,-0.147726 -0.293312,-0.387514 -0.404642,-0.53524 -0.11133,-0.147726 -0.265479,-0.348976 -0.340412,-0.449601 -0.07493,-0.100626 -0.149867,-0.190546 -0.166995,-0.19911 -0.01713,-0.0086 -0.02997,-0.02569 -0.02997,-0.0364 0,-0.02141 -0.2248,-0.331849 -0.366104,-0.507408 -0.04068,-0.04924 -0.102766,-0.130598 -0.139162,-0.181981 -0.214096,-0.297594 -1.796266,-2.4085802 -1.821957,-2.4278489 -0.01499,-0.012846 -0.02783,-0.034255 -0.02783,-0.049242 0,-0.012846 -0.0086,-0.023551 -0.01713,-0.023551 -0.0107,0 -0.02997,-0.02141 -0.04068,-0.047101 -0.01285,-0.027832 -0.04924,-0.077075 -0.07922,-0.1134709 -0.02997,-0.034255 -0.08992,-0.109189 -0.130599,-0.1648539 l -0.07707,-0.1027661 h -5.782733 c -3.181467,0 -5.789156,-0.00642 -5.795579,-0.012846 -0.02141,-0.019269 -0.0064,-2.6890457 0.01285,-2.7083144 0.0107,-0.010705 2.860322,-0.017128 6.478545,-0.014987 5.921895,0.00642 6.459276,0.00856 6.484968,0.040678 0.01499,0.019269 0.128457,0.1691358 0.250492,0.3318488 0.122035,0.1648539 0.248351,0.3297078 0.278325,0.370386 0.02997,0.040678 0.181981,0.2440695 0.338272,0.4496016 0.154149,0.2076732 0.306157,0.4110644 0.338271,0.4517426 0.06637,0.085638 0.708658,0.9484453 0.969855,1.3017037 0.09848,0.1327395 0.186264,0.2397875 0.199109,0.2397875 0.01071,0 0.01927,0.014987 0.01927,0.032114 0,0.017128 0.0107,0.032114 0.02141,0.032114 0.01284,0 0.02141,0.010705 0.02141,0.023551 0,0.010705 0.02783,0.057806 0.06209,0.1006251 0.05781,0.077075 0.203391,0.2697619 0.530958,0.7086579 0.0835,0.113471 0.171277,0.231224 0.196968,0.261197 0.02355,0.03211 0.139163,0.186264 0.256916,0.342554 0.117752,0.158431 0.237646,0.321144 0.269761,0.361822 0.02997,0.04068 0.0835,0.113471 0.117752,0.160572 0.0364,0.0471 0.07279,0.09634 0.0835,0.109189 0.02355,0.02783 0.132739,0.175559 0.503125,0.672262 0.451743,0.608032 0.740773,0.993405 0.86923,1.164682 0.06423,0.0835 0.128458,0.169136 0.139163,0.188404 0.0364,0.05566 0.655133,0.875653 0.775027,1.02552 0.06209,0.07707 0.113471,0.147727 0.113471,0.15629 0,0.0086 0.03426,0.05566 0.07493,0.104907 0.04068,0.04924 0.188404,0.24407 0.329707,0.432474 0.383232,0.518113 1.286717,1.729896 1.318832,1.768433 0.01499,0.01927 0.08992,0.119894 0.166995,0.224801 0.254774,0.346836 1.706345,2.288686 1.749164,2.337928 0.02355,0.02783 0.04282,0.05781 0.04282,0.06851 0,0.0107 0.0064,0.02141 0.01713,0.02569 0.0086,0.0043 0.06423,0.07279 0.122035,0.152007 0.05995,0.08136 0.137021,0.184122 0.171276,0.229083 0.0364,0.0471 0.09206,0.122035 0.124176,0.164853 0.03426,0.04496 0.128458,0.171277 0.209814,0.282607 0.0835,0.109189 0.145585,0.203391 0.143444,0.207673 -0.01499,0.01285 -1.811252,0.01927 -2.611971,0.0086 z"
         style="fill:#071215;stroke-width:0.00214096" />
    </g>
  </g>
</svg>
